<?xml version="1.0" standalone="no"?>
<!DOCTYPE svg PUBLIC "-//W3C//DTD SVG 20010904//EN"
 "http://www.w3.org/TR/2001/REC-SVG-20010904/DTD/svg10.dtd">
<svg version="1.0" xmlns="http://www.w3.org/2000/svg"
 width="500.000000pt" height="500.000000pt" viewBox="0 0 500.000000 500.000000"
 preserveAspectRatio="xMidYMid meet">
<metadata>
Created by potrace 1.14, written by Peter Selinger 2001-2017
</metadata>
<g transform="translate(0.000000,500.000000) scale(0.100000,-0.100000)"
fill="#000000" stroke="none">
<path d="M1210 3973 c-24 -8 -50 -23 -58 -32 -33 -41 -44 -63 -57 -108 -36
-128 -77 -280 -80 -293 -2 -8 -9 -35 -16 -60 -7 -25 -13 -49 -15 -55 -1 -5
-18 -71 -38 -145 -46 -170 -89 -330 -132 -490 -18 -69 -71 -267 -118 -440 -46
-173 -94 -351 -106 -395 -11 -44 -46 -171 -75 -282 -39 -142 -53 -210 -49
-233 7 -31 55 -89 77 -91 7 -1 455 -2 997 -4 970 -2 986 -1 1034 19 36 14 51
17 54 8 12 -37 199 -40 250 -4 l31 22 33 -22 34 -23 414 0 c365 1 419 3 446
18 34 18 94 81 95 100 1 15 2 19 34 137 14 52 28 104 30 114 3 10 15 58 29
105 13 47 49 183 81 301 31 118 75 280 97 360 22 80 41 152 43 160 2 8 26 101
55 205 28 105 53 197 55 205 1 8 22 85 45 170 23 85 44 162 45 170 2 8 29 107
60 220 69 253 73 275 45 318 -38 61 -19 60 -765 60 -672 1 -740 -2 -767 -32
-11 -12 -17 -11 -36 7 -34 32 -175 35 -231 6 -38 -20 -39 -20 -72 0 -33 19
-55 20 -729 19 -595 0 -701 -2 -740 -15z m2445 -249 c442 1 624 -2 621 -10 -2
-6 -68 -249 -146 -540 -78 -291 -164 -612 -192 -713 -27 -101 -51 -191 -53
-200 -3 -16 -39 -148 -76 -281 -12 -41 -23 -83 -24 -92 -5 -25 -54 -206 -66
-245 l-10 -33 -352 -2 c-194 -2 -359 -7 -368 -11 -14 -7 -14 0 3 65 10 40 25
96 33 123 l14 50 114 1 c124 1 158 13 185 66 10 19 47 150 117 413 8 28 25 93
39 147 31 115 32 147 6 180 -19 25 -19 26 -1 42 26 24 34 46 86 251 66 258 51
235 154 235 128 0 165 27 195 146 23 90 21 116 -14 149 l-30 29 -187 1 c-200
1 -240 -5 -274 -41 l-22 -23 -19 24 c-28 36 -64 41 -264 40 -144 -1 -186 -4
-200 -15 -16 -14 -17 -13 -10 15 4 17 9 37 11 45 2 8 10 40 18 70 9 30 21 74
27 97 10 40 11 41 35 29 19 -10 163 -13 650 -12z m-1020 -14 c-2 -8 -16 -60
-31 -115 l-26 -100 -97 0 c-109 1 -145 -6 -175 -34 -21 -20 -21 -20 -45 5 -13
13 -31 24 -40 25 -108 7 -137 4 -176 -16 l-42 -21 -27 20 c-25 19 -42 21 -214
20 -103 0 -199 -3 -213 -7 -48 -12 -83 -60 -103 -139 -10 -40 -49 -188 -87
-330 -38 -141 -69 -265 -69 -277 0 -11 5 -32 12 -46 11 -23 9 -29 -14 -48 -31
-26 -51 -71 -77 -176 -11 -42 -29 -112 -41 -156 -23 -86 -28 -141 -12 -157 6
-6 -1 -19 -18 -37 -26 -25 -50 -90 -65 -174 -5 -27 -3 -44 9 -62 31 -47 56
-52 261 -50 184 1 192 2 223 25 l32 24 25 -24 c22 -21 35 -24 104 -24 63 0 85
5 116 23 l38 22 23 -22 c17 -16 37 -22 86 -23 73 -3 112 6 150 34 14 11 28 16
30 12 2 -4 15 -16 29 -27 24 -19 40 -20 245 -20 120 1 228 4 240 8 20 7 19 2
-15 -127 -30 -113 -38 -133 -50 -123 -10 9 -248 13 -936 17 l-922 5 54 200
c30 110 56 207 58 215 12 51 127 481 135 507 6 18 13 40 15 50 2 10 10 43 18
73 8 30 45 168 82 305 37 138 73 270 79 295 23 81 108 405 111 420 2 8 4 19 4
23 1 4 10 11 20 15 11 4 308 7 660 7 565 0 640 -2 636 -15z m702 -537 c-3 -3
-11 -2 -17 2 -9 6 -9 10 1 16 14 8 27 -7 16 -18z m-1421 -10 c-3 -10 -30 -112
-61 -228 -84 -315 -74 -288 -102 -270 -13 9 -32 15 -41 14 -9 -1 -45 -1 -80 0
l-63 1 16 31 c14 25 42 121 60 199 2 8 14 51 25 95 12 44 23 87 25 95 2 8 4
16 5 18 4 3 7 20 9 37 1 11 21 15 94 18 50 1 98 4 105 5 8 1 11 -5 8 -15z
m1358 -228 c-4 -8 -10 -12 -15 -9 -14 8 -10 24 6 24 9 0 12 -6 9 -15z m-45
-254 c-15 -5 -22 6 -14 19 6 9 10 9 16 -1 5 -8 4 -15 -2 -18z m-534 9 c3 -5
-1 -10 -10 -10 -9 0 -13 5 -10 10 3 6 8 10 10 10 2 0 7 -4 10 -10z m-333 -52
c-9 -9 -15 -9 -24 0 -9 9 -7 12 12 12 19 0 21 -3 12 -12z"/>
</g>
</svg>
